<svg xmlns="http://www.w3.org/2000/svg" width="1280" height="720" viewBox="0 0 1280 720" role="img" aria-label="Waha admin dashboard preview">
  <rect width="1280" height="720" fill="#f7f1e8"/>
  <rect x="60" y="55" width="1160" height="110" rx="28" fill="#063b2b"/>
  <text x="1110" y="120" text-anchor="end" font-family="Arial,Tahoma" font-size="42" font-weight="800" fill="#fff">لوحة المسؤول</text>
  <text x="1110" y="148" text-anchor="end" font-family="Arial,Tahoma" font-size="20" fill="#bbf7d0">إدارة المحتوى المنشور وحذف العناصر غير المناسبة</text>
  <g font-family="Arial,Tahoma" font-size="20" font-weight="700"><rect x="110" y="205" width="145" height="46" rx="18" fill="#d9b75e"/><text x="182" y="235" text-anchor="middle" fill="#fff">المنتجات</text><rect x="280" y="205" width="145" height="46" rx="18" fill="#fff"/><text x="352" y="235" text-anchor="middle" fill="#0f5132">الإعلانات</text><rect x="450" y="205" width="145" height="46" rx="18" fill="#fff"/><text x="522" y="235" text-anchor="middle" fill="#0f5132">الفعاليات</text><rect x="620" y="205" width="145" height="46" rx="18" fill="#fff"/><text x="692" y="235" text-anchor="middle" fill="#0f5132">البلاغات</text></g>
  <g fill="#fff" stroke="#eadfd0"><rect x="90" y="300" width="1100" height="90" rx="18"/><rect x="90" y="415" width="1100" height="90" rx="18"/><rect x="90" y="530" width="1100" height="90" rx="18"/></g>
  <text x="1080" y="350" text-anchor="end" font-family="Arial,Tahoma" font-size="24" font-weight="800" fill="#143b2d">تمر خلاص فاخر</text><text x="1080" y="375" text-anchor="end" font-family="Arial,Tahoma" font-size="18" fill="#64746b">بواسطة: مستخدم المنصة • السوق المحلي</text>
  <text x="1080" y="465" text-anchor="end" font-family="Arial,Tahoma" font-size="24" font-weight="800" fill="#143b2d">اجتماع في المسجد</text><text x="1080" y="490" text-anchor="end" font-family="Arial,Tahoma" font-size="18" fill="#64746b">إعلان مجتمعي • قابل للمراجعة</text>
  <text x="1080" y="580" text-anchor="end" font-family="Arial,Tahoma" font-size="24" font-weight="800" fill="#143b2d">بلاغ إنارة</text><text x="1080" y="605" text-anchor="end" font-family="Arial,Tahoma" font-size="18" fill="#64746b">بلاغ مجتمع • قيد المعالجة</text>
  <g><rect x="130" y="323" width="150" height="44" rx="15" fill="#dc2626"/><text x="205" y="352" text-anchor="middle" font-family="Arial,Tahoma" font-size="18" font-weight="700" fill="#fff">حذف كمسؤول</text><rect x="130" y="438" width="150" height="44" rx="15" fill="#dc2626"/><text x="205" y="467" text-anchor="middle" font-family="Arial,Tahoma" font-size="18" font-weight="700" fill="#fff">حذف كمسؤول</text><rect x="130" y="553" width="150" height="44" rx="15" fill="#dc2626"/><text x="205" y="582" text-anchor="middle" font-family="Arial,Tahoma" font-size="18" font-weight="700" fill="#fff">حذف كمسؤول</text></g>
</svg>