<svg xmlns="http://www.w3.org/2000/svg" width="1280" height="720" viewBox="0 0 1280 720" role="img" aria-label="Waha AI assistant preview">
  <defs><linearGradient id="bg" x1="0" y1="0" x2="1" y2="1"><stop offset="0" stop-color="#064e3b"/><stop offset="1" stop-color="#022c22"/></linearGradient></defs>
  <rect width="1280" height="720" fill="#f8f1e7"/>
  <rect x="170" y="70" width="940" height="580" rx="36" fill="#fff" stroke="#e7d7bd" stroke-width="2"/>
  <rect x="170" y="70" width="940" height="92" rx="36" fill="url(#bg)"/>
  <text x="1010" y="125" text-anchor="end" font-family="Arial,Tahoma" font-size="32" font-weight="800" fill="#fff">مساعد واحة الذكي</text>
  <text x="1010" y="150" text-anchor="end" font-family="Arial,Tahoma" font-size="17" fill="#bbf7d0">متصل بـ Gemini • يدعم العربية</text>
  <circle cx="235" cy="116" r="28" fill="#d7bd6a"/><text x="235" y="126" text-anchor="middle" font-family="Arial" font-size="24">✦</text>
  <rect x="740" y="210" width="300" height="64" rx="26" fill="#e4c765"/><text x="1008" y="250" text-anchor="end" font-family="Arial,Tahoma" font-size="22" fill="#4a3b13">أريد أبيع تمر خلاص فاخر</text>
  <rect x="260" y="315" width="540" height="140" rx="22" fill="#f7faf7" stroke="#e3eadf"/>
  <text x="760" y="355" text-anchor="end" font-family="Arial,Tahoma" font-size="23" font-weight="700" fill="#0f5132">تمام، سأفتح لك نموذج إضافة منتج في السوق المحلي.</text>
  <rect x="555" y="385" width="200" height="48" rx="16" fill="#047857"/><text x="655" y="416" text-anchor="middle" font-family="Arial,Tahoma" font-size="19" fill="#fff">فتح النموذج</text>
  <rect x="700" y="495" width="340" height="56" rx="24" fill="#e4c765"/><text x="1008" y="530" text-anchor="end" font-family="Arial,Tahoma" font-size="22" fill="#4a3b13">الشارع مظلم</text>
  <rect x="260" y="570" width="520" height="54" rx="18" fill="#f7faf7" stroke="#e3eadf"/>
  <text x="745" y="604" text-anchor="end" font-family="Arial,Tahoma" font-size="21" fill="#0f5132">سأفتح بلاغ إنارة وأعبّي البيانات.</text>
</svg>