<svg xmlns="http://www.w3.org/2000/svg" width="1280" height="720" viewBox="0 0 1280 720" role="img" aria-label="Waha homepage preview">
  <defs><linearGradient id="g" x1="0" y1="0" x2="1" y2="1"><stop offset="0" stop-color="#064e3b"/><stop offset="1" stop-color="#0f766e"/></linearGradient><linearGradient id="hero" x1="0" y1="0" x2="1" y2="0"><stop offset="0" stop-color="#f7ead1"/><stop offset="1" stop-color="#fffaf0"/></linearGradient></defs>
  <rect width="1280" height="720" fill="#f7f1e8"/>
  <rect x="0" y="0" width="1280" height="78" fill="url(#g)"/>
  <text x="1160" y="48" text-anchor="end" font-family="Arial,Tahoma" font-size="34" font-weight="800" fill="#fff">واحة</text>
  <text x="770" y="49" font-family="Arial,Tahoma" font-size="18" fill="#d1fae5">الرئيسية   الخدمات   السوق   الزراعة   النقل   الفعاليات   الإعلانات</text>
  <rect x="70" y="108" width="1140" height="210" rx="28" fill="url(#hero)" stroke="#ead7b7"/>
  <circle cx="205" cy="210" r="78" fill="#e6d1a3"/>
  <path d="M174 232 C205 165 250 164 273 221" fill="none" stroke="#0f5132" stroke-width="12" stroke-linecap="round"/>
  <text x="1050" y="180" text-anchor="end" font-family="Arial,Tahoma" font-size="42" font-weight="800" fill="#12372a">واحة | المنصة الذكية</text>
  <text x="1050" y="225" text-anchor="end" font-family="Arial,Tahoma" font-size="34" font-weight="700" fill="#047857">لخدمات المجتمع الريفي</text>
  <text x="1050" y="265" text-anchor="end" font-family="Arial,Tahoma" font-size="21" fill="#64746b">تجمع الخدمات والسوق والفعاليات والبلاغات في منصة واحدة</text>
  <rect x="860" y="286" width="150" height="40" rx="20" fill="#047857"/><text x="935" y="313" text-anchor="middle" font-family="Arial,Tahoma" font-size="18" fill="#fff">استكشف الخدمات</text>
  <rect x="120" y="340" width="1040" height="80" rx="20" fill="#fff" stroke="#eee1cc"/>
  <text x="1020" y="390" text-anchor="middle" font-family="Arial,Tahoma" font-size="18" fill="#0f5132">فحص المحصول</text><text x="850" y="390" text-anchor="middle" font-family="Arial,Tahoma" font-size="18" fill="#0f5132">الخدمات الصحية</text><text x="680" y="390" text-anchor="middle" font-family="Arial,Tahoma" font-size="18" fill="#0f5132">السوق المحلي</text><text x="510" y="390" text-anchor="middle" font-family="Arial,Tahoma" font-size="18" fill="#0f5132">طلب نقل</text><text x="340" y="390" text-anchor="middle" font-family="Arial,Tahoma" font-size="18" fill="#0f5132">بلاغ جديد</text>
  <text x="1060" y="475" text-anchor="end" font-family="Arial,Tahoma" font-size="30" font-weight="800" fill="#143b2d">خدماتنا الرئيسية</text>
  <g fill="#fff" stroke="#eadfd0"><rect x="130" y="500" width="230" height="120" rx="18"/><rect x="385" y="500" width="230" height="120" rx="18"/><rect x="640" y="500" width="230" height="120" rx="18"/><rect x="895" y="500" width="230" height="120" rx="18"/></g>
  <text x="1010" y="565" text-anchor="middle" font-family="Arial,Tahoma" font-size="22" font-weight="700" fill="#0f5132">السوق المحلي</text><text x="755" y="565" text-anchor="middle" font-family="Arial,Tahoma" font-size="22" font-weight="700" fill="#0f5132">الزراعة</text><text x="500" y="565" text-anchor="middle" font-family="Arial,Tahoma" font-size="22" font-weight="700" fill="#0f5132">الصحة</text><text x="245" y="565" text-anchor="middle" font-family="Arial,Tahoma" font-size="22" font-weight="700" fill="#0f5132">النقل</text>
</svg>