<svg xmlns="http://www.w3.org/2000/svg" width="1200" height="420" viewBox="0 0 1200 420" role="img" aria-label="Waha logo">
  <defs>
    <linearGradient id="bg" x1="0" y1="0" x2="1" y2="1">
      <stop offset="0" stop-color="#052e20"/>
      <stop offset="1" stop-color="#0f5132"/>
    </linearGradient>
    <linearGradient id="gold" x1="0" y1="0" x2="1" y2="1">
      <stop offset="0" stop-color="#f6d77a"/>
      <stop offset="1" stop-color="#c69c3f"/>
    </linearGradient>
    <filter id="soft" x="-20%" y="-20%" width="140%" height="140%">
      <feDropShadow dx="0" dy="12" stdDeviation="18" flood-color="#000" flood-opacity="0.25"/>
    </filter>
  </defs>
  <rect width="1200" height="420" rx="48" fill="url(#bg)"/>
  <circle cx="790" cy="210" r="135" fill="#0b3d2a" stroke="url(#gold)" stroke-width="8" filter="url(#soft)"/>
  <path d="M725 195 C690 155 650 140 610 145 C660 108 715 121 760 172" fill="#2d8a57" stroke="#a7d9a8" stroke-width="3"/>
  <path d="M760 172 C745 120 765 80 805 50 C816 106 804 146 775 184" fill="#2d8a57" stroke="#a7d9a8" stroke-width="3"/>
  <path d="M786 176 C835 120 890 105 944 124 C886 139 850 165 815 205" fill="#2d8a57" stroke="#a7d9a8" stroke-width="3"/>
  <path d="M765 302 C777 248 779 204 774 169" fill="none" stroke="#9dd39b" stroke-width="14" stroke-linecap="round"/>
  <path d="M810 300 C792 255 786 220 792 181" fill="none" stroke="#9dd39b" stroke-width="12" stroke-linecap="round"/>
  <path d="M800 175 L865 113 M827 156 L898 156 M842 140 L925 102 M851 128 L932 73" fill="none" stroke="url(#gold)" stroke-width="8" stroke-linecap="round"/>
  <circle cx="865" cy="113" r="9" fill="url(#gold)"/>
  <circle cx="898" cy="156" r="9" fill="url(#gold)"/>
  <circle cx="925" cy="102" r="9" fill="url(#gold)"/>
  <circle cx="932" cy="73" r="9" fill="url(#gold)"/>
  <ellipse cx="720" cy="330" rx="28" ry="12" fill="#d9b75e" transform="rotate(18 720 330)"/>
  <ellipse cx="760" cy="345" rx="30" ry="13" fill="#d9b75e" transform="rotate(6 760 345)"/>
  <ellipse cx="804" cy="345" rx="30" ry="13" fill="#d9b75e" transform="rotate(-8 804 345)"/>
  <ellipse cx="846" cy="330" rx="28" ry="12" fill="#d9b75e" transform="rotate(-20 846 330)"/>
  <text x="150" y="180" font-family="Arial, Tahoma, sans-serif" font-size="86" font-weight="800" fill="#f8faf5">واحة</text>
  <text x="152" y="255" font-family="Arial, Tahoma, sans-serif" font-size="64" font-weight="700" fill="#d8b75c">Waha</text>
  <text x="152" y="315" font-family="Arial, Tahoma, sans-serif" font-size="30" font-weight="600" fill="#cdebd5">Smart Rural Services Platform</text>
</svg>
